<svg xmlns="http://www.w3.org/2000/svg" viewBox="0 0 100 100" class="icon">
  <g transform="translate(0 -400)">
    <circle class="stroke" cx="50" cy="450" r="48.077" fill="none" />
    <path class="fill" d="M50.1 417.5c-3.2 0-5.5 2.318-5.5 4.926 0 2.704 2.3 4.829 5.5 4.829 2.9 0 5.5-2.125 5.5-4.83 0-2.704-2.5-4.925-5.5-4.925zm5.1 21.538c-5.4 0-9.4 4.829-14.8 4.829l5.5 4.83v28.974c0 1.835-1 2.318-2.3 2.414h-3.2c-.4.483-.4.966-.4 1.353 0 .29.2.676.4 1.062h19.1c.3-.29.5-.773.5-1.159 0-.483-.1-.87-.5-1.256h-3.2c-1.3 0-2.2-.58-2.2-2.414v-33.804c0-1.642.4-3.284 1.1-4.83z" />
  </g>
</svg>